<svg width="24" height="24" viewBox="0 0 24 24" fill="none" xmlns="http://www.w3.org/2000/svg">
<rect width="24" height="24" fill="white"/>
<circle cx="12" cy="9" r="7" fill="#1B6686"/>
<path d="M11.9995 21C6.83228 14.9503 4.72355 11.8983 5.07133 8.25L18.9277 8.25C18.8713 12.1348 17.281 14.9566 11.9995 21Z" fill="#1B6686"/>
<circle cx="12" cy="9" r="6" fill="white"/>
<path d="M14.3067 7.31563C14.24 7.13125 14.0533 7 13.8333 7H10.1667C9.94667 7 9.76333 7.13125 9.69333 7.31563L9 9.1875V10.4375V11.6875C9 11.8594 9.15 12 9.33333 12H9.66667C9.85 12 10 11.8594 10 11.6875V11.375H14V11.6875C14 11.8594 14.15 12 14.3333 12H14.6667C14.85 12 15 11.8594 15 11.6875V9.1875L14.3067 7.31563ZM10.1667 10.4375C9.89 10.4375 9.66667 10.2281 9.66667 9.96875C9.66667 9.70937 9.89 9.5 10.1667 9.5C10.4433 9.5 10.6667 9.70937 10.6667 9.96875C10.6667 10.2281 10.4433 10.4375 10.1667 10.4375ZM13.8333 10.4375C13.5567 10.4375 13.3333 10.2281 13.3333 9.96875C13.3333 9.70937 13.5567 9.5 13.8333 9.5C14.11 9.5 14.3333 9.70937 14.3333 9.96875C14.3333 10.2281 14.11 10.4375 13.8333 10.4375ZM9.33333 8.875L10 7.31563H14L14.6667 8.875H9.33333Z" fill="#1B6686"/>
</svg>
